<?xml version="1.0" encoding="utf-8"?>
<!-- Generator: Adobe Illustrator 24.3.0, SVG Export Plug-In . SVG Version: 6.00 Build 0)  -->
<svg version="1.1" xmlns="http://www.w3.org/2000/svg" xmlns:xlink="http://www.w3.org/1999/xlink" x="0px" y="0px"
	 viewBox="0 0 500 500" style="enable-background:new 0 0 500 500;" xml:space="preserve">
<style type="text/css">
	.st0{display:none;}
	.st1{display:inline;opacity:0.3;}
	.st2{fill:#3C2415;}
	.st3{fill:url(#SVGID_1_);}
	.st4{fill:url(#SVGID_2_);}
	.st5{fill:url(#SVGID_3_);}
	.st6{fill:url(#SVGID_4_);}
	.st7{fill:url(#SVGID_5_);}
	.st8{fill:url(#SVGID_6_);}
	.st9{fill:#050000;}
	.st10{fill:url(#SVGID_7_);}
	.st11{fill:url(#SVGID_8_);}
	.st12{fill:url(#SVGID_9_);}
	.st13{fill:url(#SVGID_10_);}
	.st14{fill:url(#SVGID_11_);}
	.st15{fill:url(#SVGID_12_);}
	.st16{fill:url(#SVGID_13_);}
	.st17{fill:url(#SVGID_14_);}
	.st18{fill:url(#SVGID_15_);}
	.st19{fill:url(#SVGID_16_);}
	.st20{clip-path:url(#SVGID_18_);}
	.st21{fill:url(#SVGID_19_);}
	.st22{fill:url(#SVGID_20_);}
	.st23{fill:url(#SVGID_21_);}
	.st24{fill:url(#SVGID_22_);}
	.st25{fill:url(#SVGID_23_);}
	.st26{fill:url(#SVGID_24_);}
	.st27{fill:url(#SVGID_25_);}
	.st28{fill:url(#SVGID_26_);}
	.st29{fill:url(#SVGID_27_);}
	.st30{fill:#3A86FF;}
	.st31{fill:#004E98;}
	.st32{fill:url(#SVGID_28_);}
	.st33{fill:url(#SVGID_29_);}
	.st34{fill:url(#SVGID_30_);}
	.st35{fill:url(#SVGID_31_);}
	.st36{fill:url(#SVGID_32_);}
	.st37{fill:url(#SVGID_33_);}
	.st38{fill:url(#SVGID_34_);}
	.st39{fill:url(#SVGID_35_);}
	.st40{fill:url(#SVGID_36_);}
	.st41{fill:url(#SVGID_37_);}
	.st42{fill:url(#SVGID_38_);}
	.st43{fill:#061121;}
	.st44{fill:#0353A4;}
	.st45{fill:url(#SVGID_39_);}
	.st46{fill:url(#SVGID_40_);}
	.st47{fill:#FFB8B8;}
	.st48{fill:url(#SVGID_41_);}
	.st49{fill:#FFBE0B;}
	.st50{fill:url(#SVGID_42_);}
	.st51{fill:url(#SVGID_43_);}
	.st52{fill:url(#SVGID_44_);}
	.st53{fill:url(#SVGID_45_);}
	.st54{fill:none;stroke:#FFFFFF;stroke-width:3;stroke-miterlimit:10;}
	.st55{fill:url(#SVGID_46_);}
	.st56{fill:url(#SVGID_47_);}
</style>
<g id="Layer_1" class="st0">
	<g class="st1">
		<g>
			<path class="st2" d="M184.21,413.76c7.3,7.74,15.06,14.82,24.05,20.57c8.15,5.22,16.98,9.35,26.18,12.36
				c18.34,5.99,38.03,7.39,57.1,4.71c19.2-2.69,37.85-9.56,54.13-20.1c8.44-5.46,16.65-11.82,23.01-19.65
				c7.01-8.62,12.19-18.56,16.72-28.65c4.41-9.83,7.83-20.17,13.41-29.42c5.22-8.66,12.1-16.03,19.5-22.86
				c8.37-7.72,16.71-15.13,23.86-24.05c6.99-8.71,13.03-18.18,17.97-28.19c9.79-19.82,15.39-41.74,15.89-63.86
				c0.43-19.23-3.66-39.95-15.65-55.45c-6.2-8.01-14.27-13.58-23.66-17.27c-11.17-4.38-23.12-6.09-34.85-8.27
				c-11.88-2.21-23.59-5.08-34.19-11.07c-10.4-5.88-19.89-13.18-28.92-20.97c-17.36-14.99-33.39-32.4-53.42-43.94
				c-17.49-10.08-37.65-13.86-57.6-10.84c-20.05,3.04-38.79,12.35-54.89,24.43c-16.35,12.26-30.48,27.54-41.71,44.6
				c-5.8,8.83-10.5,18.18-14.92,27.76c-4.71,10.2-9.37,20.6-16.2,29.6c-3.6,4.75-7.83,8.92-12.62,12.46
				c-5.06,3.75-10.52,6.94-15.61,10.66c-9.18,6.71-16.15,15.51-21.36,25.58c-18.94,36.58-22.64,90.75,14.57,117.27
				c13.39,9.54,29.39,14.54,44.68,20.09c8.23,2.99,16.43,6.14,24.24,10.11c9.79,4.97,18.5,11.43,26.42,19.02
				C168.74,396.44,176.27,405.3,184.21,413.76c0.88,0.94,2.29-0.48,1.41-1.41c-8.11-8.64-15.79-17.69-24.38-25.86
				c-7.62-7.25-15.99-13.49-25.34-18.34c-14.76-7.66-30.8-12.22-46.2-18.37c-14.94-5.97-29.48-13.97-38.82-27.52
				c-12.93-18.77-14.69-43.36-10.44-65.19c2.34-12.02,6.34-23.93,12.06-34.78c5.68-10.78,13.33-19.52,23.4-26.4
				c4.65-3.17,9.47-6.11,13.92-9.55c4.34-3.35,8.17-7.23,11.52-11.58c6.75-8.77,11.42-18.88,16.03-28.88
				c4.26-9.24,8.67-18.34,14.15-26.94c5.53-8.67,11.82-16.86,18.76-24.45c13.7-15,30.01-27.96,48.46-36.61
				c17.82-8.36,37.9-12.35,57.45-8.88c10.37,1.84,20.3,5.69,29.34,11.07c9.93,5.91,18.89,13.43,27.52,21.07
				c16.82,14.89,32.77,31.05,52.34,42.41c10.06,5.83,20.98,9.07,32.33,11.31c11.49,2.27,23.19,3.76,34.34,7.47
				c10.07,3.35,19.01,8.6,25.81,16.87c6.13,7.45,10.17,16.47,12.7,25.73c5.57,20.35,4.08,42.35-1.09,62.62
				c-5.52,21.64-15.82,42.09-30.04,59.32c-13.09,15.87-30.95,27.21-41.88,44.9c-5.61,9.08-9.03,19.24-13.33,28.96
				c-4.41,9.96-9.39,19.85-16.13,28.45c-6.29,8.04-14.43,14.5-22.94,20.06c-8.04,5.25-16.66,9.61-25.65,12.98
				c-36.02,13.5-78.11,11.22-110.77-9.95c-8.64-5.6-16.09-12.46-23.13-19.93C184.74,411.41,183.33,412.83,184.21,413.76z"/>
		</g>
	</g>
	<g class="st1">
		<g>
			<g>
				<path class="st2" d="M186.82,270.85c-21.98,10.23-43.85,20.67-65.61,31.34c-6.22,3.05-12.43,6.12-18.63,9.2
					c-0.72,0.36-0.58,1.34,0,1.73c19.74,13.44,40.83,24.84,62.89,34c2.8,1.16,5.61,2.29,8.44,3.38c2.77,1.07,5.64,2.42,8.56,2.97
					c2.73,0.51,5.17-0.21,7.54-1.57c2.56-1.47,5.01-3.16,7.48-4.77c10.22-6.68,20.2-13.72,29.92-21.1
					c10.9-8.27,21.48-16.96,31.71-26.05c0.48-0.43,0.33-1.27-0.2-1.57c-19.45-11.11-40.32-19.74-61.94-25.59
					c-3.08-0.83-6.17-1.61-9.28-2.33c-0.53-0.12-1.14-0.39-1.66-0.1c-0.6,0.33-1.09,1.07-1.57,1.56c-1.25,1.28-2.5,2.56-3.76,3.85
					c-0.9,0.92,0.51,2.34,1.41,1.41c1.71-1.75,3.41-3.5,5.12-5.25c-0.32,0.09-0.65,0.17-0.97,0.26
					c19.6,4.48,38.68,11.19,56.74,20.03c5.05,2.47,10.01,5.1,14.89,7.89c-0.07-0.52-0.13-1.05-0.2-1.57
					c-17.84,15.85-36.75,30.49-56.59,43.77c-2.5,1.68-5.02,3.33-7.55,4.96c-2.35,1.52-4.85,3.54-7.63,4.19
					c-2.9,0.69-5.87-0.79-8.53-1.78c-2.7-1.01-5.38-2.05-8.05-3.13c-10.88-4.39-21.53-9.34-31.91-14.8
					c-11.66-6.14-22.97-12.95-33.87-20.37c0,0.58,0,1.15,0,1.73c21.7-10.79,43.51-21.37,65.43-31.72c6.26-2.96,12.53-5.9,18.81-8.82
					C188.99,272.04,187.98,270.31,186.82,270.85L186.82,270.85z"/>
			</g>
		</g>
		<g>
			<g>
				<path class="st2" d="M102.97,311.33c3.29,6.92,4.71,14.53,6.29,21.98c1.69,7.98,3.38,15.96,5.06,23.94
					c3.34,15.8,6.68,31.59,10.02,47.39c1.89,8.96,3.79,17.91,5.68,26.87c0.27,1.26,2.19,0.73,1.93-0.53
					c-6.79-32.08-13.57-64.17-20.36-96.25c-1.75-8.27-3.24-16.72-6.9-24.41C104.15,309.16,102.42,310.17,102.97,311.33
					L102.97,311.33z"/>
			</g>
		</g>
		<g>
			<g>
				<path class="st2" d="M182.12,351.33c1.64,28.04,5.33,55.97,11.06,83.47c1.62,7.77,3.4,15.49,5.34,23.19
					c0.31,1.25,2.24,0.72,1.93-0.53c-6.82-27.07-11.67-54.63-14.45-82.41c-0.79-7.89-1.41-15.8-1.87-23.72
					C184.05,350.05,182.04,350.04,182.12,351.33L182.12,351.33z"/>
			</g>
		</g>
		<g>
			<g>
				<path class="st2" d="M256.49,299.83c1.76,23.75,3.93,47.46,6.53,71.13c2.59,23.59,5.59,47.14,9.01,70.63
					c1.92,13.21,3.98,26.4,6.16,39.56c0.21,1.27,2.14,0.73,1.93-0.53c-3.89-23.48-7.38-47.03-10.43-70.64
					c-3.03-23.37-5.64-46.79-7.85-70.25c-1.25-13.29-2.36-26.59-3.35-39.9C258.4,298.55,256.39,298.54,256.49,299.83L256.49,299.83z
					"/>
			</g>
		</g>
	</g>
	<g class="st1">
		<g>
			<g>
				<path class="st2" d="M297.09,355.5c-19.89,10.04-39.08,21.45-57.39,34.15c-5.21,3.61-10.35,7.34-15.42,11.15
					c-0.6,0.45-0.68,1.29,0,1.73c19.69,12.82,40.19,24.36,61.37,34.52c2.5,1.2,5,2.51,7.59,3.51c2.57,0.99,5.04,1.06,7.58-0.07
					c2.71-1.21,5.29-2.8,7.89-4.22c2.69-1.46,5.38-2.92,8.07-4.39c10.67-5.8,21.37-11.54,32-17.41
					c10.67-5.88,21.22-12.23,29.99-20.77c0.44-0.42,0.38-1.29-0.2-1.57c-21.18-10.45-42.71-20.18-64.55-29.19
					c-6.26-2.58-12.54-5.1-18.85-7.56c-1.2-0.47-1.72,1.46-0.53,1.93c21.99,8.58,43.69,17.9,65.06,27.94
					c5.98,2.81,11.93,5.68,17.86,8.6c-0.07-0.52-0.13-1.05-0.2-1.57c-7.7,7.5-16.81,13.27-26.13,18.54
					c-10.14,5.72-20.43,11.17-30.66,16.73c-5.23,2.85-10.47,5.69-15.7,8.54c-2.38,1.29-5.15,3.4-7.97,3.3
					c-2.76-0.1-5.45-1.78-7.89-2.94c-10.36-4.91-20.57-10.15-30.6-15.71c-11.27-6.25-22.31-12.9-33.11-19.93c0,0.58,0,1.15,0,1.73
					c17.79-13.41,36.51-25.58,55.99-36.4c5.55-3.08,11.15-6.04,16.82-8.9C299.25,356.65,298.23,354.92,297.09,355.5L297.09,355.5z"
					/>
			</g>
		</g>
		<g>
			<g>
				<path class="st2" d="M224.44,400.11c1.25,17.57,2.51,35.15,3.76,52.72c1.25,17.57,2.51,35.15,3.76,52.72
					c0.71,9.95,1.42,19.89,2.13,29.84c0.09,1.28,2.09,1.29,2,0c-1.25-17.57-2.51-35.15-3.76-52.72
					c-1.25-17.57-2.51-35.15-3.76-52.72c-0.71-9.95-1.42-19.89-2.13-29.84C226.34,398.83,224.34,398.82,224.44,400.11L224.44,400.11
					z"/>
			</g>
		</g>
		<g>
			<g>
				<path class="st2" d="M297.2,434.68c-4.77,25.36-7.74,51.05-8.83,76.83c-0.31,7.36-0.47,14.73-0.48,22.1c0,1.29,2,1.29,2,0
					c0.03-25.79,1.91-51.57,5.66-77.08c1.05-7.13,2.24-14.24,3.58-21.32C299.36,433.95,297.43,433.41,297.2,434.68L297.2,434.68z"/>
			</g>
		</g>
		<g>
			<g>
				<path class="st2" d="M378.32,390.53c-4.47,17.42-8.54,34.95-12.18,52.56c-3.62,17.53-6.83,35.15-9.62,52.84
					c-1.57,9.98-3.01,19.97-4.31,29.99c-0.17,1.27,1.84,1.26,2,0c2.32-17.75,5.06-35.44,8.22-53.05
					c3.15-17.54,6.71-35.01,10.68-52.39c2.25-9.84,4.63-19.65,7.14-29.42C380.57,389.82,378.64,389.28,378.32,390.53L378.32,390.53z
					"/>
			</g>
		</g>
	</g>
	<g class="st1">
		<g>
			<path class="st2" d="M294.96,178.21c-22.17,10.04-45,18.46-67.94,26.54c-6.56,2.31-13.13,4.59-19.69,6.89
				c-0.71,0.25-1.1,1.46-0.24,1.83c22.81,9.78,45.62,19.55,68.42,29.33c2.31,0.99,4.66,2.12,7.22,2.19
				c2.86,0.07,5.53-1.22,8.11-2.29c5.68-2.36,11.36-4.73,17.05-7.09c11.36-4.73,22.73-9.46,34.09-14.19
				c12.9-5.37,25.8-10.74,38.7-16.11c0.81-0.34,1.08-1.71,0-1.93c-22.62-4.47-44.65-11.41-66.44-18.85
				c-6.18-2.11-12.34-4.26-18.5-6.42c-1.22-0.43-1.74,1.51-0.53,1.93c21.75,7.6,43.54,15.2,65.87,20.92
				c6.32,1.62,12.67,3.08,19.07,4.34c0-0.64,0-1.29,0-1.93c-22.5,9.36-44.99,18.73-67.49,28.09c-5.6,2.33-11.21,4.67-16.81,7
				c-2.72,1.13-5.42,2.31-8.16,3.39c-2.82,1.11-5.35,1.45-8.26,0.41c-2.86-1.02-5.62-2.36-8.41-3.55c-2.76-1.18-5.51-2.36-8.27-3.54
				c-5.59-2.4-11.17-4.79-16.76-7.19c-12.63-5.41-25.26-10.83-37.88-16.24c-0.08,0.61-0.16,1.22-0.24,1.83
				c23.12-8.08,46.29-16.04,68.95-25.36c6.44-2.64,12.83-5.4,19.16-8.27C297.14,179.41,296.13,177.68,294.96,178.21L294.96,178.21z"
				/>
		</g>
	</g>
	<g class="st1">
		<g>
			<path class="st2" d="M206.96,212.32c5.66,17.63,7.14,36.15,11.01,54.17c1.11,5.15,2.43,10.25,4.07,15.26
				c0.4,1.22,2.33,0.7,1.93-0.53c-5.75-17.57-7.24-36.07-11.05-54.07c-1.1-5.18-2.4-10.32-4.02-15.36
				C208.49,210.57,206.56,211.09,206.96,212.32L206.96,212.32z"/>
		</g>
	</g>
	<g class="st1">
		<g>
			<path class="st2" d="M279.93,243.14c0.85,16.61,2.28,33.2,2.32,49.84c0.02,8.19-0.37,16.33-1.25,24.47c-0.43,4-0.88,8.01-1,12.04
				c-0.13,4.1,0.2,8.15,0.68,12.21c1.1,9.3,2.75,18.57,2.56,27.98c-0.03,1.29,1.97,1.29,2,0c0.16-8.27-1.09-16.46-2.15-24.64
				c-0.54-4.14-1.07-8.3-1.13-12.48c-0.05-4.05,0.29-8.09,0.71-12.11c0.84-8.11,1.49-16.18,1.56-24.35
				c0.07-8.3-0.24-16.6-0.68-24.89c-0.49-9.36-1.16-18.72-1.64-28.08C281.87,241.86,279.87,241.85,279.93,243.14L279.93,243.14z"/>
		</g>
	</g>
	<g class="st1">
		<g>
			<path class="st2" d="M377.92,203.57c-1.71,21.84-2.52,43.73-2.74,65.63c-0.21,21.86,0.16,43.71,0.78,65.56
				c0.35,12.28,0.77,24.55,1.22,36.83c0.05,1.28,2.05,1.29,2,0c-0.79-21.88-1.53-43.75-1.86-65.64
				c-0.34-21.85-0.28-43.71,0.52-65.56c0.45-12.29,1.13-24.56,2.09-36.82C380.02,202.29,378.02,202.29,377.92,203.57L377.92,203.57z
				"/>
		</g>
	</g>
	<g class="st1">
		<g>
			<path class="st2" d="M298.26,134.35c0.13,2.97,0.17,6.28-1.25,8.99c-1.6,3.08-4.97,4.08-8.21,3.19
				c-3.47-0.96-5.94-3.77-7.85-6.68c-1.55-2.36-2.96-4.84-3.82-7.53c-1.36-4.26-1.5-9.53,2.38-12.53
				c3.84-2.98,10.43-3.72,14.09-0.09C297.3,123.35,298.02,129.41,298.26,134.35c0.06,1.28,2.06,1.29,2,0
				c-0.26-5.32-1.1-11.38-4.74-15.54c-4.03-4.6-11.26-4.36-16.18-1.33c-4.95,3.04-5.84,8.87-4.48,14.14
				c0.79,3.07,2.26,5.88,3.94,8.55c2.07,3.3,4.66,6.47,8.39,7.92c3.78,1.47,8.26,0.84,10.79-2.53c2.36-3.14,2.45-7.44,2.29-11.21
				C300.2,133.07,298.2,133.06,298.26,134.35z"/>
		</g>
	</g>
	<g class="st1">
		<g>
			<path class="st2" d="M282.2,138.99c-0.02,4.34-0.03,8.67-0.05,13.01c-0.01,1.74-0.01,3.55,1.03,5.03
				c0.93,1.32,2.33,2.15,3.73,2.89c1.8,0.95,3.6,1.98,5.45,2.84c1.31,0.61,2.73,0.35,3.16-1.19c0.47-1.69,0.15-3.82,0.02-5.55
				c-0.15-1.87-0.41-3.74-0.8-5.58c-0.89-4.27-2.43-8.38-4.52-12.2c-0.28-0.51-0.88-0.57-1.37-0.36c-1.19,0.52-2.39,1.03-3.58,1.55
				c-1.18,0.51-0.16,2.23,1.01,1.73c1.19-0.52,2.39-1.03,3.58-1.55c-0.46-0.12-0.91-0.24-1.37-0.36c2.01,3.68,3.47,7.62,4.32,11.72
				c0.4,1.94,0.66,3.9,0.78,5.87c0.07,1.1,0.1,2.2,0.07,3.3c0,0.05,0.03,0.9-0.05,0.97c-0.12,0.1-1.42-0.7-1.58-0.79
				c-1.84-0.96-3.76-1.83-5.51-2.94c-1.77-1.12-2.34-2.52-2.36-4.56c-0.04-4.61,0.03-9.23,0.05-13.85
				C284.21,137.7,282.21,137.7,282.2,138.99L282.2,138.99z"/>
		</g>
	</g>
	<g class="st1">
		<g>
			<path class="st2" d="M281.54,154.35c4.02-0.5,7.86-2.28,11.67-3.56c4.08-1.37,8.75-2.99,13.11-2.32c1.86,0.28,3.57,1.13,4.65,2.7
				c1.39,2.03,1.83,4.7,2.09,7.09c0.59,5.32,0.25,10.69,0.96,16c0.47,3.52,1.08,7.02,2.52,10.29c1.32,2.99,3.26,5.64,5.19,8.26
				c1.88,2.56,3.81,5.15,5.12,8.07c0.48,1.07,0.67,1.73-0.13,2.68c-0.52,0.61-1.11,1.17-1.68,1.74c-1.13,1.13-2.31,2.21-3.53,3.25
				c-4.84,4.13-10.34,7.5-16.18,10.02c-5.77,2.49-12.11,4.38-18.37,5.06c-1.01,0.11-2.16,0.18-3.07-0.38
				c-0.74-0.45-1.18-1.24-1.58-1.98c-0.83-1.59-1.55-3.26-2.28-4.89c-1.5-3.34-2.9-6.72-4.13-10.17
				c-2.49-6.94-4.52-14.31-4.31-21.75c0.03-1.04-1.35-1.3-1.86-0.5c-5.6,8.62-11.21,17.24-17.3,25.52c-1.54,2.1-3.11,4.17-4.73,6.21
				c-1.35,1.71-2.83,3.44-4.73,4.54c-1.87,1.08-4.13,1.24-5.71-0.44c-1.29-1.38-1.71-3.45-1.45-5.27c0.34-2.44,1.63-4.62,2.88-6.7
				c1.35-2.25,2.71-4.49,4.07-6.73c2.74-4.52,5.47-9.05,8.21-13.57c2.78-4.59,5.56-9.19,8.34-13.78c2.48-4.11,4.82-8.36,7.58-12.29
				c1.74-2.49,3.83-4.9,6.7-6.1c3.19-1.34,6.86-1.25,10.25-1.18c1.29,0.03,1.29-1.97,0-2c-3.36-0.07-6.92-0.1-10.13,1.01
				c-2.71,0.94-4.93,2.71-6.75,4.9c-2.96,3.56-5.18,7.73-7.57,11.68c-3.04,5.02-6.07,10.04-9.11,15.06
				c-3.04,5.02-6.07,10.04-9.11,15.06c-1.47,2.44-2.96,4.86-4.42,7.31c-1.28,2.15-2.51,4.43-2.89,6.93
				c-0.56,3.71,1.26,8.22,5.34,8.88c4.71,0.76,8.26-3.75,10.8-7.02c7.74-9.92,14.61-20.47,21.46-31.02
				c-0.62-0.17-1.24-0.34-1.86-0.5c-0.19,6.9,1.49,13.77,3.68,20.26c1.13,3.35,2.43,6.64,3.82,9.89c0.68,1.59,1.39,3.17,2.11,4.74
				c0.66,1.43,1.25,2.98,2.2,4.25c2.16,2.88,5.77,2.08,8.84,1.53c3.36-0.6,6.67-1.42,9.91-2.48c6.34-2.07,12.4-5.04,17.86-8.88
				c2.72-1.92,5.31-4.04,7.71-6.35c1.12-1.08,2.61-2.25,3.31-3.66c0.74-1.48-0.07-3.08-0.73-4.43c-3.09-6.37-8.76-11.2-10.88-18.08
				c-1.92-6.23-1.8-12.67-2.09-19.1c-0.21-4.69-0.45-11-4.63-14.05c-3.63-2.65-8.75-1.81-12.8-0.8c-4.73,1.18-9.2,3.15-13.88,4.48
				c-0.82,0.23-1.66,0.46-2.5,0.57C280.28,152.51,280.26,154.51,281.54,154.35L281.54,154.35z"/>
		</g>
	</g>
	<g class="st1">
		<g>
			<path class="st2" d="M306,210.81c-8.73-0.09-17.41,1.53-25.5,4.81c-0.41,0.17-0.74,0.49-0.73,0.96
				c0.08,5.34,2.27,10.17,6.22,13.76c4,3.64,9.06,5.91,14.09,7.76c2.55,0.94,5.14,1.76,7.73,2.57c1.19,0.37,2.39,0.75,3.58,1.13
				c1.27,0.41,2.74,0.74,3.9,1.42c1.91,1.11,1.1,3.6,0.73,5.34c-0.41,1.97-0.82,3.94-1.22,5.91c-0.81,4.04-1.53,8.1-2.04,12.18
				c-0.56,4.52-0.85,9.11-0.45,13.66c0.17,1.92,0.42,3.76,1.59,5.36c1.08,1.48,2.58,2.4,4.41,2.55c0.33,0.03,0.72-0.2,0.86-0.5
				c5.99-11.76,10.68-24.18,13.91-36.99c0.78-3.11,1.48-6.23,2.09-9.37c0.32-1.65,0.62-3.3,0.89-4.95c0.25-1.53,0.66-3.17,0.61-4.73
				c-0.09-2.87-2.64-5.11-4.48-7.06c-2.07-2.19-4.27-4.26-6.59-6.19c-5.24-4.37-11.04-8.03-17.25-10.87
				c-1.16-0.53-2.18,1.19-1.01,1.73c5.28,2.42,10.29,5.41,14.88,8.97c2.33,1.8,4.54,3.75,6.64,5.82c0.9,0.89,1.78,1.79,2.63,2.72
				c1.04,1.14,2.46,2.4,3,3.88c0.52,1.44-0.05,3.28-0.29,4.74c-0.26,1.58-0.53,3.16-0.83,4.73c-0.58,3.07-1.25,6.13-2,9.16
				c-1.5,6.07-3.32,12.06-5.46,17.94c-2.42,6.66-5.26,13.15-8.47,19.46c0.29-0.17,0.58-0.33,0.86-0.5c-4.1-0.33-4.08-5.8-4.16-8.78
				c-0.11-4.03,0.23-8.06,0.78-12.05c0.53-3.9,1.27-7.78,2.05-11.64c0.38-1.88,0.79-3.75,1.17-5.63c0.31-1.54,0.61-3.25-0.07-4.74
				c-1.12-2.44-4.58-3-6.91-3.74c-2.43-0.77-4.86-1.51-7.28-2.32c-4.92-1.64-9.88-3.52-14.16-6.53c-4.81-3.38-7.88-8.25-7.97-14.21
				c-0.24,0.32-0.49,0.64-0.73,0.96c7.94-3.21,16.4-4.83,24.96-4.74C307.28,212.83,307.28,210.83,306,210.81L306,210.81z"/>
		</g>
	</g>
	<g class="st1">
		<g>
			<path class="st2" d="M324.05,204.75c5.73,0.72,11.38,2.32,16.64,4.73c4.96,2.27,10.21,5.22,13.86,9.36
				c3.87,4.4,4.21,10.27,3.6,15.84c-0.67,6.11-2.01,12.19-3.32,18.19c-1.51,6.95-3.26,13.85-5.23,20.69
				c0.41-0.23,0.82-0.47,1.23-0.7c-0.94-0.26-1.88-0.51-2.82-0.77c0.23,0.23,0.47,0.47,0.7,0.7c-4.75-12.95-6.18-26.99-4.05-40.63
				c0.06-0.4-0.03-0.94-0.46-1.13c-7.57-3.3-15.13-6.61-22.7-9.91c-3.17-1.38-6.51-2.6-9.45-4.46c-2.35-1.49-4.59-3.59-4.45-6.59
				c0.06-1.29-1.94-1.28-2,0c-0.32,6.88,8,9.76,13.07,11.97c8.17,3.57,16.34,7.14,24.51,10.71c-0.15-0.38-0.31-0.75-0.46-1.13
				c-1.21,7.74-1.38,15.61-0.39,23.39c0.48,3.81,1.21,7.59,2.21,11.3c0.52,1.92,1.11,3.83,1.77,5.7c0.22,0.63,0.34,1.5,0.93,1.89
				c0.77,0.51,2.18,0.63,3.06,0.87c0.53,0.14,1.08-0.18,1.23-0.7c1.88-6.53,3.56-13.11,5.03-19.74c1.4-6.35,2.78-12.78,3.55-19.24
				c0.65-5.54,0.43-11.51-2.95-16.19c-3.36-4.66-8.81-7.9-13.87-10.4c-6.05-2.99-12.53-4.91-19.22-5.75
				C322.77,202.59,322.78,204.59,324.05,204.75L324.05,204.75z"/>
		</g>
	</g>
	<g class="st1">
		<g>
			<path class="st2" d="M238.49,219.4c-4.98,0.54-9.94-0.05-14.65-1.75c0.23,0.41,0.47,0.82,0.7,1.23c0.35-1.14,1.53-1.74,2.67-1.42
				c1.1,0.31,1.74-1.24,0.77-1.83c-1.63-0.98-3.25-1.95-4.88-2.93c-0.67-0.41-3.7-2.14-1.78-2.85c1.41-0.52,3.49,0.12,4.88,0.4
				c1.68,0.33,3.33,0.78,4.96,1.28c3.08,0.95,6.36,1.94,9.24,3.4c1.09,0.55,2.55,1.45,2.7,2.8c0.09,0.84-0.73,2.68-1.83,2.19
				c-1.17-0.52-2.18,1.2-1.01,1.73c2.52,1.12,4.86-1.25,4.84-3.78c-0.03-3.17-3.53-4.71-6.03-5.66c-3.82-1.46-7.69-2.89-11.69-3.76
				c-2.26-0.49-7.55-1.98-8.59,1.23c-0.52,1.61,0.68,2.99,1.9,3.86c1.97,1.41,4.19,2.56,6.27,3.81c0.26-0.61,0.51-1.22,0.77-1.83
				c-2.2-0.63-4.46,0.64-5.13,2.81c-0.17,0.55,0.2,1.05,0.7,1.23c4.86,1.76,10.04,2.38,15.18,1.82
				C239.75,221.26,239.77,219.26,238.49,219.4L238.49,219.4z"/>
		</g>
	</g>
	<g class="st1">
		<g>
			<path class="st2" d="M316.77,279.69c-1.2,2.23-3.4,4.03-3.75,6.65c-0.36,2.66,1.44,5.45,2.58,7.74
				c2.36,4.77,5.38,9.48,10.23,12.02c0.72,0.38,1.42-0.11,1.5-0.86c0.46-4.21,0.64-8.27-1.45-12.1c-1.86-3.42-5.39-7.05-3.97-11.26
				c0.41-1.22-1.52-1.75-1.93-0.53c-1.35,4,1,7.69,3.07,10.94c1.22,1.92,2.24,3.85,2.52,6.14c0.28,2.26,0.01,4.56-0.24,6.81
				c0.5-0.29,1-0.58,1.5-0.86c-4.32-2.27-7.01-6.39-9.17-10.62c-0.52-1.02-1.01-2.05-1.49-3.09c-0.57-1.22-1.37-2.59-1.2-3.98
				c0.27-2.27,2.49-4.04,3.53-5.98C319.11,279.57,317.38,278.56,316.77,279.69L316.77,279.69z"/>
		</g>
	</g>
	<g class="st1">
		<g>
			<path class="st2" d="M348.67,266.79c0.07,0.82-0.57,1.43-1.06,2.01c-0.55,0.66-1.1,1.35-1.28,2.21
				c-0.24,1.15,0.34,2.08,1.04,2.94c0.78,0.96,1.58,1.89,2.41,2.81c3.21,3.55,7.09,6.74,12.03,7.18c0.47,0.04,0.81-0.35,0.96-0.73
				c1.3-3.25-1.61-6.25-3.53-8.52c-2.46-2.91-4.91-5.83-7.37-8.74c-0.83-0.99-2.24,0.44-1.41,1.41c2.18,2.58,4.36,5.17,6.54,7.75
				c1.01,1.2,2.11,2.36,2.99,3.67c0.79,1.18,1.42,2.49,0.86,3.89c0.32-0.24,0.64-0.49,0.96-0.73c-4.36-0.39-7.81-3.49-10.62-6.6
				c-0.71-0.79-1.4-1.6-2.09-2.42c-0.57-0.68-1.09-1.21-0.57-2.05c0.82-1.33,2.29-2.34,2.13-4.08
				C350.56,265.52,348.56,265.51,348.67,266.79L348.67,266.79z"/>
		</g>
	</g>
	<g class="st1">
		<g>
			<path class="st2" d="M283.74,142.7c0.44-3.69-0.46-7.28-1.54-10.79c-0.49-1.59-1.01-3.18-1.45-4.78
				c-0.2-0.74-0.76-1.94-0.21-2.62c0.58-0.73,1.93-1.22,2.71-1.7c3.33-2.02,6.66-4.04,9.99-6.06c1.15-0.7,2.41-1.44,3.02-2.69
				c0.6-1.22,0.34-2.6-0.51-3.62c-1.8-2.16-5.15-2.46-7.74-2.05c-3.05,0.48-5.8,2.09-8.13,4.06c-4.7,3.97-9.51,10.77-6.86,17.12
				c0.82,1.96,1.63,3.74,2.03,5.85c0.34,1.78,0.6,3.61,1.42,5.25c1.37,2.73,4.5,4.68,7.48,3.35c1.17-0.52,0.16-2.25-1.01-1.73
				c-2.92,1.3-4.93-2.62-5.45-4.81c-0.32-1.36-0.49-2.76-0.83-4.12c-0.35-1.43-0.97-2.71-1.57-4.04c-2.61-5.78,1.9-11.84,6.21-15.47
				c2.13-1.79,4.74-3.29,7.55-3.58c1.21-0.13,2.53-0.06,3.68,0.35c1.28,0.45,2.79,1.68,1.6,3.04c-0.9,1.03-2.41,1.67-3.56,2.37
				c-1.39,0.84-2.78,1.68-4.16,2.53c-1.39,0.84-2.78,1.68-4.16,2.53c-1.14,0.69-2.73,1.32-3.5,2.46c-0.76,1.13-0.36,2.47-0.04,3.68
				c0.46,1.76,1.04,3.48,1.57,5.22c1.03,3.35,1.88,6.73,1.46,10.25C281.59,143.98,283.59,143.97,283.74,142.7L283.74,142.7z"/>
		</g>
	</g>
	<g class="st1">
		<g>
			<path class="st2" d="M303.17,255.22c-1.89-0.86-3.92-0.47-5.53,0.81c-1.83,1.46-2.53,3.72-2.79,5.97
				c-0.31,2.71-0.25,5.5-0.23,8.23c0.01,2.89,0.15,5.78,0.52,8.65c0.36,2.78,0.95,5.53,1.91,8.17c0.77,2.12,1.74,4.31,3.53,5.77
				c1.52,1.24,3.62,1.76,5.51,1.11c2.26-0.79,2.86-2.86,3.13-5.03c0.76-6.2-0.15-12.55-2.52-18.32c-0.23-0.55-0.88-1-1.47-0.6
				c-1.82,1.24-3.64,2.48-5.46,3.72c-1.06,0.72-0.06,2.45,1.01,1.73c1.82-1.24,3.64-2.48,5.46-3.72c-0.49-0.2-0.98-0.4-1.47-0.6
				c1.68,4.09,2.63,8.43,2.71,12.86c0.04,2.1,0.16,4.75-0.63,6.73c-0.67,1.7-2.85,1.84-4.28,1.07c-1.78-0.95-2.73-3.02-3.42-4.82
				c-0.78-2.04-1.33-4.17-1.72-6.32c-0.81-4.48-0.86-9.07-0.78-13.6c0.04-2.3-0.1-4.79,0.64-7c0.63-1.89,2.7-4.07,4.89-3.08
				C303.32,257.47,304.34,255.75,303.17,255.22L303.17,255.22z"/>
		</g>
	</g>
	<g class="st1">
		<g>
			<path class="st2" d="M318.81,251.3c-3.46,4.05-2.38,10.28-2.25,15.18c0.08,3.25,0.15,6.5,0.25,9.75
				c0.07,2.45,0.24,5.12,1.65,7.21c1.19,1.76,3.26,3.11,5.45,2.88c1.95-0.21,3.4-1.54,4.16-3.3c0.81-1.86,0.94-3.97,0.89-5.98
				c-0.08-3.08-0.23-6.17-0.34-9.25c-0.19-5.06-0.36-13.01-6.92-13.95c-1.26-0.18-1.8,1.75-0.53,1.93c4.97,0.71,5.26,6.67,5.4,10.59
				c0.09,2.55,0.19,5.11,0.28,7.66c0.07,1.97,0.26,3.98-0.01,5.94c-0.2,1.48-0.68,3.31-2.1,4.07c-1.85,0.99-3.91-0.43-4.82-2.04
				c-1.12-1.99-1.07-4.44-1.13-6.66c-0.06-2.54-0.13-5.08-0.19-7.62c-0.07-2.72-0.2-5.46-0.19-8.18c0.01-2.38,0.22-4.93,1.83-6.82
				C321.06,251.74,319.65,250.32,318.81,251.3L318.81,251.3z"/>
		</g>
	</g>
	<g class="st1">
		<g>
			<path class="st2" d="M338.02,277.7c-0.83-11.58,0.01-23.21,2.51-34.54c-0.61,0.08-1.22,0.16-1.83,0.24
				c2.18,5.14,4.36,10.27,6.54,15.41c1.07,2.53,2.15,5.06,3.22,7.59c0.52,1.23,1.04,2.45,1.56,3.68c0.29,0.69,0.59,1.38,0.88,2.07
				c0.1,0.23,0.94,1.78,0.86,1.92c0.2-0.15,0.4-0.31,0.6-0.46c-0.05,0.01-0.1,0.02-0.15,0.03c0.26,0.03,0.51,0.07,0.77,0.1
				c0.09,0.17,0.18,0.34,0.28,0.51c-0.24,0.32-0.49,0.64-0.73,0.96c0.04-0.02,0.08-0.03,0.12-0.05c1.17-0.48,0.66-2.42-0.53-1.93
				c-0.04,0.02-0.08,0.03-0.12,0.05c-0.41,0.17-0.74,0.49-0.73,0.96c0.01,0.84,0.77,1.57,1.63,1.28c1.3-0.43,0.8-1.91,0.42-2.79
				c-1.43-3.37-2.86-6.75-4.29-10.12c-2.86-6.75-5.72-13.49-8.59-20.24c-0.34-0.8-1.65-0.55-1.83,0.24
				c-2.54,11.5-3.42,23.33-2.58,35.08C336.11,278.98,338.11,278.99,338.02,277.7L338.02,277.7z"/>
		</g>
	</g>
	<g class="st1">
		<g>
			<path class="st2" d="M338.64,267c3.48-2.28,6.96-4.56,10.44-6.84c1.07-0.7,0.07-2.43-1.01-1.73c-3.48,2.28-6.96,4.56-10.44,6.84
				C336.56,265.97,337.56,267.71,338.64,267L338.64,267z"/>
		</g>
	</g>
	<g class="st1">
		<g>
			<path class="st2" d="M356.7,235.86c-0.54,4.96,1.1,9.74,2.01,14.55c0.95,4.97,1.25,10.04,0.99,15.1
				c-0.04,0.73,0.89,1.28,1.5,0.86c3.87-2.6,7.56-5.45,11.04-8.55c0.96-0.86-0.45-2.27-1.41-1.41c-3.36,2.99-6.91,5.73-10.64,8.24
				c0.5,0.29,1,0.58,1.5,0.86c0.25-4.92-0.04-9.84-0.89-14.7c-0.87-4.96-2.67-9.85-2.11-14.95
				C358.84,234.59,356.84,234.6,356.7,235.86L356.7,235.86z"/>
		</g>
	</g>
	<g class="st1">
		<g>
			<path class="st2" d="M217.45,316.91c8.97,20.06,17.95,40.12,26.92,60.19c2.54,5.68,5.08,11.36,7.62,17.03
				c0.52,1.17,2.25,0.16,1.73-1.01c-8.97-20.06-17.95-40.12-26.92-60.19c-2.54-5.68-5.08-11.36-7.62-17.03
				C218.65,314.72,216.93,315.74,217.45,316.91L217.45,316.91z"/>
		</g>
	</g>
	<g class="st1">
		<g>
			<path class="st2" d="M239.07,300.96c3.64,23.26,16.17,43.63,25.78,64.73c2.77,6.09,5.31,12.28,7.35,18.65
				c0.39,1.22,2.32,0.7,1.93-0.53c-7.19-22.39-20.4-42.2-28.21-64.33c-2.19-6.2-3.91-12.56-4.92-19.06
				C240.8,299.16,238.87,299.7,239.07,300.96L239.07,300.96z"/>
		</g>
	</g>
	<g class="st1">
		<g>
			<path class="st2" d="M225.18,332.12c6.2-4.36,11.75-9.58,16.45-15.52c0.37-0.47,0.43-1.25-0.2-1.57
				c-1.19-0.62-2.6-0.44-3.54,0.55c-0.89,0.93,0.52,2.35,1.41,1.41c0.31-0.32,0.7-0.45,1.12-0.23c-0.07-0.52-0.13-1.05-0.2-1.57
				c-4.59,5.81-9.99,10.95-16.04,15.21C223.13,331.13,224.12,332.87,225.18,332.12L225.18,332.12z"/>
		</g>
	</g>
	<g class="st1">
		<g>
			<path class="st2" d="M228.99,337c4.7-4.28,9.72-8.18,15.04-11.67c1.07-0.7,0.07-2.44-1.01-1.73
				c-5.45,3.58-10.62,7.59-15.44,11.98C226.62,336.45,228.04,337.86,228.99,337L228.99,337z"/>
		</g>
	</g>
	<g class="st1">
		<g>
			<path class="st2" d="M234.94,346.49c4.26-0.82,7.76-3.42,11.09-6.05c4.03-3.18,8.05-6.39,12.08-9.58
				c-0.56-0.32-1.11-0.65-1.67-0.97c-0.18,0.67-0.5,1.2-1.07,1.62c-1.03,0.75-0.03,2.49,1.01,1.73c1-0.73,1.66-1.61,1.99-2.81
				c0.29-1.04-0.94-1.56-1.67-0.97c-3.82,3.03-7.64,6.06-11.45,9.09c-3.26,2.59-6.65,5.23-10.83,6.03
				C233.14,344.81,233.68,346.74,234.94,346.49L234.94,346.49z"/>
		</g>
	</g>
	<g class="st1">
		<g>
			<path class="st2" d="M243.02,357.83c2.29-1.72,4.59-3.43,6.88-5.15c1.11-0.83,2.22-1.66,3.33-2.49c0.59-0.44,1.18-0.89,1.78-1.33
				c0.28-0.21,0.55-0.44,0.85-0.63c0.11-0.08,0.24-0.15,0.37-0.2c-0.6-0.39-0.64-0.71-0.11-0.99c0.18,0,0.35,0,0.53,0
				c0.09,0.06,0.18,0.11,0.26,0.17c-0.43-0.34-1-0.41-1.41,0c-0.35,0.34-0.42,1.08,0,1.41c1.4,1.11,3.04-0.91,1.87-2.13
				c-0.69-0.72-1.78-0.46-2.52,0.01c-0.87,0.56-1.68,1.25-2.51,1.88c-3.44,2.58-6.88,5.15-10.32,7.73
				c-0.44,0.33-0.65,0.86-0.36,1.37C241.9,357.9,242.59,358.15,243.02,357.83L243.02,357.83z"/>
		</g>
	</g>
	<g class="st1">
		<g>
			<path class="st2" d="M244.9,369.41c5.24-3.18,10.49-6.37,15.73-9.56c1.1-0.67,0.09-2.4-1.01-1.73
				c-5.24,3.18-10.49,6.37-15.73,9.56C242.8,368.35,243.8,370.08,244.9,369.41L244.9,369.41z"/>
		</g>
	</g>
	<g class="st1">
		<g>
			<path class="st2" d="M252.32,381.76c5.69-1.54,10.84-4.88,14.53-9.47c0.34-0.42,0.41-1,0-1.41c-0.35-0.35-1.08-0.42-1.41,0
				c-3.49,4.35-8.26,7.5-13.65,8.96C250.55,380.16,251.08,382.09,252.32,381.76L252.32,381.76z"/>
		</g>
	</g>
	<g class="st1">
		<g>
			<path class="st2" d="M228.11,212.6c-6.61,19.66-13.09,39.38-19.85,59c-1.81,5.26-3.8,10.46-6.52,15.33
				c-0.63,1.13,1.1,2.14,1.73,1.01c4.83-8.67,7.59-18.37,10.73-27.72c3.38-10.04,6.76-20.09,10.13-30.13
				c1.9-5.65,3.8-11.3,5.7-16.95C230.45,211.91,228.52,211.39,228.11,212.6L228.11,212.6z"/>
		</g>
	</g>
	<g class="st1">
		<g>
			<path class="st2" d="M246.5,222.15c-5.33,18.7-11.03,37.3-17.12,55.76c-1.72,5.22-3.48,10.43-5.26,15.63
				c-0.42,1.22,1.51,1.74,1.93,0.53c6.3-18.4,12.23-36.92,17.77-55.56c1.57-5.27,3.1-10.55,4.61-15.84
				C248.79,221.45,246.86,220.92,246.5,222.15L246.5,222.15z"/>
		</g>
	</g>
	<g class="st1">
		<g>
			<path class="st2" d="M209.75,277.34c0.23,1.44,1.36,2.44,2.61,3.07c1.61,0.82,3.42,1.31,5.15,1.8c3.7,1.04,7.49,1.65,11.32,1.92
				c1.28,0.09,1.28-1.91,0-2c-3.31-0.24-6.58-0.75-9.8-1.59c-1.59-0.42-3.18-0.89-4.73-1.47c-1.11-0.41-2.42-0.99-2.62-2.28
				C211.48,275.55,209.55,276.08,209.75,277.34L209.75,277.34z"/>
		</g>
	</g>
	<g class="st1">
		<g>
			<path class="st2" d="M213.19,263.09c6.19,0.97,12.19,2.92,17.76,5.81c1.14,0.59,2.15-1.13,1.01-1.73
				c-5.72-2.97-11.87-5.01-18.23-6.01C212.46,260.97,211.92,262.89,213.19,263.09L213.19,263.09z"/>
		</g>
	</g>
	<g class="st1">
		<g>
			<path class="st2" d="M222.56,248.38c2.42,1.09,4.84,2.17,7.26,3.26c1.19,0.53,2.38,1.07,3.57,1.6c0.59,0.27,1.19,0.53,1.78,0.8
				c0.3,0.13,0.6,0.26,0.89,0.4c0.11,0.05,0.21,0.1,0.31,0.16c0.45-1.26,0.88-1.35,1.31-0.27c-0.1,0.24-0.2,0.47-0.29,0.71
				c0.02-0.02,0.04-0.05,0.06-0.07c0.83-0.98-0.58-2.4-1.41-1.41c-1.21,1.42,1.21,2.87,2.07,1.43c1.12-1.85-2.23-2.81-3.33-3.3
				c-3.74-1.68-7.47-3.35-11.21-5.03c-0.5-0.22-1.07-0.14-1.37,0.36C221.95,247.43,222.07,248.16,222.56,248.38L222.56,248.38z"/>
		</g>
	</g>
	<g class="st1">
		<g>
			<path class="st2" d="M223.12,237.2c5.67,0.75,11.15,2.64,16.1,5.49c1.12,0.64,2.13-1.08,1.01-1.73
				c-5.28-3.04-11.07-4.97-17.11-5.76c-0.54-0.07-0.99,0.51-1,1C222.11,236.8,222.59,237.13,223.12,237.2L223.12,237.2z"/>
		</g>
	</g>
	<g class="st1">
		<g>
			<path class="st2" d="M227.63,222.8c4.09,2.11,8.17,4.23,12.26,6.34c1.14,0.59,2.15-1.13,1.01-1.73
				c-4.09-2.11-8.17-4.23-12.26-6.34C227.5,220.48,226.49,222.21,227.63,222.8L227.63,222.8z"/>
		</g>
	</g>
	<g class="st1">
		<g>
			<path class="st2" d="M143.1,140.28c-11.84-3.41-24.55-1.06-35.12,5.02c-10.7,6.15-19.36,16.01-23.55,27.66
				c-4.67,12.97-4.16,27.37,0,40.4c4.3,13.44,12.42,25.93,23.26,35c10.37,8.67,23.38,12.8,36.86,11.87
				c12.88-0.88,25.5-6.04,35.08-14.74c9.92-9.01,16.42-21.41,19.23-34.44c2.84-13.18,2.09-27.23-2.53-39.92
				c-4.68-12.83-13.43-24.36-26.16-29.97c-6.87-3.03-14.31-4.37-21.76-4.99c-3.81-0.32-7.62-0.44-11.44-0.51
				c-3.62-0.06-7.3-0.24-10.9,0.21c-3.15,0.39-6.14,1.38-8.52,3.54c-0.95,0.87,0.46,2.28,1.41,1.41c2.52-2.29,5.92-2.96,9.23-3.15
				c3.49-0.2,7.02-0.06,10.51,0.02c7.27,0.16,14.6,0.6,21.7,2.3c6.86,1.64,13.39,4.54,18.81,9.1c4.94,4.16,8.88,9.37,11.88,15.06
				c6.06,11.51,8.31,24.89,7.15,37.79c-1.15,12.79-5.78,25.47-13.85,35.53c-7.91,9.86-18.95,16.66-31.27,19.46
				c-12.02,2.73-25.09,1.55-35.96-4.47c-12.03-6.66-21.4-18.34-27.22-30.63c-5.65-11.91-8.24-25.57-6.09-38.66
				c2.01-12.24,8.25-23.13,17.78-31.06c8.98-7.47,20.65-12.08,32.42-11.41c2.89,0.16,5.74,0.67,8.52,1.47
				C143.81,142.57,144.34,140.64,143.1,140.28L143.1,140.28z"/>
		</g>
	</g>
	<g class="st1">
		<g>
			<path class="st2" d="M140.21,164.63c-14.12-0.43-23.55,14.18-25.91,26.51c-1.35,7.08-0.86,14.54,1.96,21.21
				c2.53,6,7.01,11.09,12.59,14.46c5.5,3.32,12.01,4.84,18.38,3.84c6.41-1,12.28-4.5,16.69-9.18c4.86-5.16,7.88-11.75,9.16-18.69
				c0.68-3.71,0.91-7.5,0.74-11.27c-0.17-3.58-0.5-7.42-1.71-10.82c-1.2-3.35-3.49-5.64-6.62-7.25c-3.4-1.76-7.05-3.24-10.69-4.41
				c-6.72-2.15-14.33-2.75-20.71,0.79c-1.41,0.78-2.69,1.77-3.82,2.92c-0.91,0.92,0.51,2.33,1.41,1.41
				c4.72-4.76,11.86-5.6,18.18-4.35c3.66,0.73,7.17,2.05,10.58,3.52c2.97,1.28,6.47,2.57,8.42,5.31c1.93,2.73,2.36,6.39,2.71,9.63
				c0.35,3.31,0.41,6.65,0.13,9.97c-0.58,6.72-2.71,13.39-6.72,18.87c-3.55,4.86-8.58,8.81-14.34,10.68
				c-5.62,1.83-11.63,1.46-17.07-0.8c-5.56-2.32-10.39-6.48-13.53-11.62c-3.47-5.66-4.8-12.42-4.39-19.01
				c0.44-7.19,2.94-14.46,7.32-20.21c4.11-5.41,10.22-9.73,17.25-9.52C141.5,166.66,141.49,164.66,140.21,164.63L140.21,164.63z"/>
		</g>
	</g>
	<g class="st1">
		<g>
			<path class="st2" d="M138.93,193.16c3.14-0.34,5.97,1.66,7.32,4.41c1.28,2.6,0.76,5.59-1.41,7.53c-1.91,1.71-4.81,2.41-7.28,1.71
				c-2.54-0.72-4.18-2.98-4.43-5.56c-0.29-2.95,0.98-6.07,3.69-7.45c1.15-0.58,0.14-2.31-1.01-1.73c-6.09,3.1-6.45,13.37,0.05,16.24
				c3.06,1.35,6.85,0.84,9.54-1.12c2.94-2.14,4.27-5.75,3.13-9.26c-1.3-3.98-5.29-7.24-9.61-6.77c-0.54,0.06-0.99,0.42-1,1
				C137.92,192.66,138.39,193.22,138.93,193.16L138.93,193.16z"/>
		</g>
	</g>
	<g class="st1">
		<g>
			<path class="st2" d="M416.65,166.59c-12.07-4.21-22.99,7.55-27.73,17.29c-5.34,10.96-6.26,24.07-1.93,35.53
				c4.02,10.66,12.17,19.72,22.4,24.75c1.31,0.64,2.65,1.21,4,1.73c1.53,0.59,3.22,1.18,4.22,2.57c1.74,2.42,0.86,5.91,0.42,8.6
				c-0.86,5.23-0.86,11.17,2.02,15.82c2.68,4.32,7.48,6.31,12.43,5.32c5.09-1.02,8.87-4.86,9.68-9.99c0.51-3.24,0.24-6.54,1.1-9.73
				c0.8-2.95,2.28-5.72,4.3-8.01c2-2.28,4.45-4.02,7.22-5.24c3.11-1.37,6.42-2.26,9.32-4.08c9.89-6.2,13.66-19.28,14.25-30.29
				c0.6-11.17-2.18-22.49-7.64-32.24c-5.54-9.88-14.25-18.82-24.88-23.12c-5.9-2.38-12.29-2.56-18.28-0.39
				c-5.78,2.1-10.8,5.85-15.34,9.92c-2.3,2.07-4.5,4.25-6.67,6.46c-0.9,0.92,0.51,2.33,1.41,1.41c7.92-8.07,17.69-17.68,29.87-17.35
				c6.38,0.17,12.28,3.29,17.3,7.01c4.27,3.16,8.05,7.04,11.18,11.34c6.23,8.57,10.09,18.88,10.94,29.45
				c0.85,10.54-1.02,22.7-7.78,31.18c-1.76,2.21-3.88,4.11-6.36,5.48c-2.91,1.61-6.17,2.44-9.15,3.88
				c-4.89,2.36-8.74,6.59-10.78,11.61c-1.11,2.72-1.48,5.52-1.64,8.43c-0.16,3-0.29,6.18-2.23,8.63c-2.76,3.49-8.08,4.95-12.2,3.18
				c-5.01-2.15-6.56-8.1-6.58-13.06c-0.01-2.71,0.54-5.3,0.88-7.97c0.33-2.56,0.34-5.38-1.29-7.54c-1.7-2.24-4.59-2.87-7.04-3.94
				c-2.49-1.09-4.88-2.43-7.12-3.97c-4.54-3.13-8.5-7.15-11.56-11.73c-6.44-9.62-8.63-21.48-6.15-32.79
				c2.35-10.74,9.32-23.27,20.67-26.42c2.73-0.76,5.52-0.73,8.2,0.2C417.33,168.94,417.86,167.01,416.65,166.59L416.65,166.59z"/>
		</g>
	</g>
	<g class="st1">
		<g>
			<path class="st2" d="M429.48,260.02c-7.33-0.47-14.85,3.43-18.36,9.95c-3.42,6.34-2.58,14.56,1.94,20.14
				c4.55,5.62,12.85,7.56,19.52,4.92c7.17-2.84,10.5-10.22,12.21-17.25c0.98-4.03,2.51-9.14,0.74-13.13
				c-1.42-3.19-5.74-5.06-8.61-2.58c-0.98,0.84,0.44,2.25,1.41,1.41c1.09-0.94,2.66-0.62,3.77,0.11c1.42,0.93,2.02,2.5,2.15,4.14
				c0.28,3.3-0.73,6.88-1.53,10.06c-1.52,5.99-4.28,12.42-10.27,15.13c-5.66,2.56-12.88,1.21-17.17-3.29
				c-4.31-4.53-5.47-11.76-3.02-17.48c2.85-6.63,10.13-10.59,17.21-10.13C430.77,262.11,430.76,260.11,429.48,260.02L429.48,260.02z
				"/>
		</g>
	</g>
	<g class="st1">
		<g>
			<path class="st2" d="M419.46,293.15c-0.5,4.63,2.13,9.39,6.22,11.57c0.52,0.28,1.07,0.51,1.63,0.71
				c0.71,0.25,1.13,0.25,1.73-0.24c0.97-0.8,1.82-1.71,2.58-2.71c1.49-1.95,2.58-4.22,3.17-6.6c0.68-2.73,0.71-5.58,0.08-8.32
				c-0.29-1.25-2.22-0.72-1.93,0.53c1.35,5.82-0.89,12.09-5.51,15.84c0.32-0.09,0.65-0.17,0.97-0.26
				c-4.48-1.31-7.44-5.92-6.94-10.52C421.6,291.87,419.6,291.88,419.46,293.15L419.46,293.15z"/>
		</g>
	</g>
	<g class="st1">
		<g>
			<path class="st2" d="M441.01,169.8c-12.25-0.42-23.71,6.35-31.22,15.71c-7.74,9.65-12.62,23.49-6.11,35.07
				c2.83,5.04,8.61,10.16,14.81,9c2.95-0.55,5.39-2.56,7.43-4.66c2.47-2.56,4.75-5.33,7.09-8c5.26-5.98,10.51-11.97,15.77-17.95
				c2.56-2.91,5.16-5.79,7.66-8.74c1.94-2.29,3.7-4.79,4.18-7.81c0.91-5.66-2.13-11.8-7.51-14.03c-5.5-2.27-12.18-0.22-15.57,4.62
				c-0.74,1.06,0.99,2.06,1.73,1.01c2.78-3.96,8.34-5.59,12.85-3.88c4.58,1.73,7.26,7,6.57,11.75c-0.41,2.82-2.12,5.14-3.94,7.25
				c-2.22,2.58-4.49,5.12-6.74,7.68c-4.6,5.24-9.2,10.47-13.8,15.71c-2.3,2.62-4.6,5.24-6.9,7.85c-1.87,2.13-3.74,4.44-6.16,5.98
				c-5.53,3.49-11.68-0.6-14.88-5.35c-6.89-10.24-3.01-23.2,3.68-32.45c7.12-9.84,18.62-17.18,31.05-16.75
				C442.3,171.85,442.3,169.85,441.01,169.8L441.01,169.8z"/>
		</g>
	</g>
	<g class="st1">
		<g>
			<path class="st2" d="M460.32,206.26c-4.97,0.66-9.54,3.08-12.91,6.8c-3.12,3.45-5.61,8.36-5.13,13.13
				c0.21,2.01,0.9,4.11,2.49,5.45c2.03,1.7,4.74,1.43,6.96,0.23c2.47-1.34,4.63-3.51,6.45-5.62c1.9-2.2,3.53-4.64,4.8-7.26
				c1.39-2.85,2.73-6.21,1.85-9.42c-0.71-2.6-3.06-4.78-5.85-4.61c-1.28,0.08-1.29,2.08,0,2c2.41-0.15,3.99,2.11,4.11,4.33
				c0.14,2.46-0.94,4.91-2.02,7.06c-2.09,4.17-5.14,8.08-8.92,10.87c-1.74,1.29-4.28,2.5-6.18,0.82c-1.27-1.12-1.7-3.02-1.75-4.64
				c-0.13-3.86,1.87-7.81,4.36-10.65c3.01-3.44,7.18-5.87,11.73-6.48C461.58,208.1,461.6,206.09,460.32,206.26L460.32,206.26z"/>
		</g>
	</g>
</g>
<g id="Layer_2">
	<linearGradient id="SVGID_1_" gradientUnits="userSpaceOnUse" x1="404.2236" y1="475.7956" x2="147.3583" y2="87.0527">
		<stop  offset="0" style="stop-color:#3A86FF"/>
		<stop  offset="0.9832" style="stop-color:#80ED99;stop-opacity:0.4"/>
	</linearGradient>
	<path class="st3" d="M228.25,43.13c-60.06,0-85.1,47.72-110.58,87.09c-33.04,51.05-89.32,73.97-92.42,129.85
		c-2.62,47.33,14.24,75.1,88.51,106.63c63.92,27.13,63.7,90.61,158.24,90.17c87.17-0.41,98.05-69.95,133.17-116.63
		c34.28-45.55,84.72-82.5,65.63-152.84c-14.43-53.15-95.46-50.35-127.95-78.76C301.66,72.61,275.15,43.13,228.25,43.13z"/>
	<linearGradient id="SVGID_2_" gradientUnits="userSpaceOnUse" x1="161.8578" y1="119.7217" x2="161.8578" y2="289.3486">
		<stop  offset="0" style="stop-color:#FFFFFF"/>
		<stop  offset="0.9944" style="stop-color:#FFFFFF;stop-opacity:0"/>
	</linearGradient>
	<rect x="149.67" y="130.82" class="st4" width="24.38" height="176.03"/>
	<linearGradient id="SVGID_3_" gradientUnits="userSpaceOnUse" x1="174.0496" y1="72.3416" x2="174.0496" y2="241.9685">
		<stop  offset="0" style="stop-color:#FFFFFF"/>
		<stop  offset="0.9944" style="stop-color:#FFFFFF;stop-opacity:0"/>
	</linearGradient>
	<rect x="161.86" y="83.44" class="st5" width="24.38" height="176.03"/>
	
		<linearGradient id="SVGID_4_" gradientUnits="userSpaceOnUse" x1="370.7468" y1="449.1773" x2="331.457" y2="409.8875" gradientTransform="matrix(0.9994 -0.0334 0.0334 0.9994 12.096 -130.1541)">
		<stop  offset="5.586590e-03" style="stop-color:#0353A4"/>
		<stop  offset="1" style="stop-color:#C0C0C0"/>
	</linearGradient>
	<path class="st6" d="M387.67,280.7c-9.84-2.29-19.21,1.88-20.94,9.3c-1.73,7.42,4.85,15.3,14.69,17.58
		c9.84,2.29,19.21-1.88,20.94-9.3C404.09,290.86,397.51,282.99,387.67,280.7z"/>
	
		<linearGradient id="SVGID_5_" gradientUnits="userSpaceOnUse" x1="494.3838" y1="279.9161" x2="424.757" y2="279.9161" gradientTransform="matrix(0.8838 0.4678 -0.4678 0.8838 150.7131 -169.1371)">
		<stop  offset="5.586590e-03" style="stop-color:#0353A4"/>
		<stop  offset="1" style="stop-color:#C0C0C0"/>
	</linearGradient>
	<path class="st7" d="M422.65,277.24c0.1-0.28,0.2-0.56,0.29-0.85c0.16-0.51,0.3-0.99,0.4-1.42c3.16-13.58-8.87-27.98-26.86-32.16
		c-17.99-4.18-35.13,3.43-38.29,17.01c-0.1,0.43-0.18,0.92-0.26,1.45c-0.05,0.3-0.08,0.59-0.11,0.89
		c-0.86,7.42-0.02,21.95,2.24,26.03l0.01,0c3.12,7.72,11.3,14.39,21.95,16.87c10.65,2.47,20.93,0.1,27.14-5.45l0.01,0
		C412.98,296.95,420.15,284.28,422.65,277.24z"/>
	
		<linearGradient id="SVGID_6_" gradientUnits="userSpaceOnUse" x1="450.1636" y1="237.6049" x2="396.3011" y2="291.4674" gradientTransform="matrix(0.8838 0.4678 -0.4678 0.8838 150.7131 -169.1371)">
		<stop  offset="5.586590e-03" style="stop-color:#0353A4"/>
		<stop  offset="1" style="stop-color:#C0C0C0"/>
	</linearGradient>
	<path class="st8" d="M385.14,287.78c14.34,4.02,28.47,0.35,35.38-8.26c2.32-2.89,3.52-6.58,3.27-10.28
		c-0.79-11.69-11.84-22.83-27.31-26.43c-13.43-3.12-26.38,0.33-33.4,7.93c-3.16,3.43-4.54,8.21-3.67,12.8
		C361.39,274.05,371.33,283.91,385.14,287.78z"/>
	<path class="st9" d="M474.11,187.63c-1.2-36.07-31.42-64.33-67.48-63.12s-64.33,31.42-63.12,67.48
		c0.52,15.48,6.39,29.51,15.76,40.4c4.53,6.08,8.95,15.34,8.05,20.57c-0.03,0.13-0.08,0.25-0.11,0.38
		c-2.47,10.61,6.93,21.87,21,25.14c14.07,3.27,27.47-2.68,29.94-13.3c0.03-0.13,0.04-0.26,0.06-0.39
		c1.49-5.06,9.44-11.36,16.17-14.84C458.48,239.68,475.03,215.4,474.11,187.63z"/>
	<linearGradient id="SVGID_7_" gradientUnits="userSpaceOnUse" x1="374.672" y1="233.0602" x2="418.9594" y2="120.8657">
		<stop  offset="0" style="stop-color:#FFFFFF"/>
		<stop  offset="1" style="stop-color:#FFFFFF;stop-opacity:0"/>
	</linearGradient>
	<path class="st10" d="M443.87,159.48c-1-16.38-23.75-24.48-41.98-22.33c-26.15,3.09-46.94,22.93-46.07,49.25
		c0.53,15.81,10.85,23.21,21.57,23.19c0.1,0,0.19,0,0.29,0c19.8-0.66,23.04-23.06,36.76-30.78
		C426.66,171.92,444.69,172.84,443.87,159.48z"/>
	<linearGradient id="SVGID_8_" gradientUnits="userSpaceOnUse" x1="426.5363" y1="265.11" x2="470.8235" y2="152.9158">
		<stop  offset="0" style="stop-color:#FFFFFF"/>
		<stop  offset="1" style="stop-color:#FFFFFF;stop-opacity:0"/>
	</linearGradient>
	<path class="st11" d="M463.02,189c-4.89-4.57-13.84-2.95-19.99,3.63c-6.15,6.58-7.17,15.61-2.29,20.19
		c4.89,4.57,13.84,2.95,19.99-3.63C466.88,202.61,467.9,193.58,463.02,189z"/>
	<g>
		<linearGradient id="SVGID_9_" gradientUnits="userSpaceOnUse" x1="36.5994" y1="207.1734" x2="175.0233" y2="207.1734">
			<stop  offset="0" style="stop-color:#231F20"/>
			<stop  offset="1" style="stop-color:#231F20;stop-opacity:0"/>
		</linearGradient>
		<path class="st12" d="M99.94,140.98c-38.08,0-66.33,29.64-63.09,66.2s36.74,66.2,74.83,66.2s66.33-29.64,63.09-66.2
			C171.53,170.61,138.03,140.98,99.94,140.98z"/>
		<linearGradient id="SVGID_10_" gradientUnits="userSpaceOnUse" x1="36.5994" y1="207.1734" x2="175.0233" y2="207.1734">
			<stop  offset="0" style="stop-color:#231F20"/>
			<stop  offset="1" style="stop-color:#231F20;stop-opacity:0"/>
		</linearGradient>
		<path class="st13" d="M99.94,140.98c-38.08,0-66.33,29.64-63.09,66.2s36.74,66.2,74.83,66.2s66.33-29.64,63.09-66.2
			C171.53,170.61,138.03,140.98,99.94,140.98z"/>
		<linearGradient id="SVGID_11_" gradientUnits="userSpaceOnUse" x1="43.1862" y1="202.6348" x2="176.8882" y2="202.6348">
			<stop  offset="0" style="stop-color:#231F20"/>
			<stop  offset="1" style="stop-color:#231F20;stop-opacity:0"/>
		</linearGradient>
		<path class="st14" d="M104.37,137.83c-36.79,0-64.07,29.01-60.94,64.8s35.49,64.8,72.28,64.8c36.79,0,64.07-29.01,60.94-64.8
			S141.15,137.83,104.37,137.83z"/>
		<linearGradient id="SVGID_12_" gradientUnits="userSpaceOnUse" x1="56.6341" y1="202.6348" x2="163.4403" y2="202.6348">
			<stop  offset="0" style="stop-color:#231F20"/>
			<stop  offset="1" style="stop-color:#231F20;stop-opacity:0"/>
		</linearGradient>
		<path class="st15" d="M105.51,150.87c-29.39,0-51.18,23.18-48.68,51.77c2.5,28.59,28.35,51.77,57.74,51.77
			s51.18-23.18,48.68-51.77C160.74,174.05,134.89,150.87,105.51,150.87z"/>
		<linearGradient id="SVGID_13_" gradientUnits="userSpaceOnUse" x1="69.3926" y1="202.6348" x2="150.6818" y2="202.6348">
			<stop  offset="0" style="stop-color:#231F20"/>
			<stop  offset="1" style="stop-color:#231F20;stop-opacity:0"/>
		</linearGradient>
		<path class="st16" d="M106.59,163.24c-22.37,0-38.95,17.64-37.05,39.4c1.9,21.76,21.58,39.4,43.94,39.4s38.95-17.64,37.05-39.4
			C148.63,180.88,128.96,163.24,106.59,163.24z"/>
		<linearGradient id="SVGID_14_" gradientUnits="userSpaceOnUse" x1="81.8673" y1="202.6349" x2="138.2071" y2="202.6349">
			<stop  offset="0" style="stop-color:#231F20"/>
			<stop  offset="1" style="stop-color:#231F20;stop-opacity:0"/>
		</linearGradient>
		<path class="st17" d="M107.65,175.33c-15.5,0-27,12.23-25.68,27.31c1.32,15.08,14.95,27.31,30.46,27.31
			c15.5,0,27-12.23,25.68-27.31C136.78,187.55,123.15,175.33,107.65,175.33z"/>
		<linearGradient id="SVGID_15_" gradientUnits="userSpaceOnUse" x1="93.7577" y1="202.6348" x2="126.3167" y2="202.6348">
			<stop  offset="0" style="stop-color:#231F20"/>
			<stop  offset="1" style="stop-color:#231F20;stop-opacity:0"/>
		</linearGradient>
		<path class="st18" d="M108.66,186.85c-8.96,0-15.6,7.07-14.84,15.78c0.76,8.72,8.64,15.78,17.6,15.78s15.6-7.06,14.84-15.78
			C125.49,193.92,117.61,186.85,108.66,186.85z"/>
		<linearGradient id="SVGID_16_" gradientUnits="userSpaceOnUse" x1="43.1862" y1="202.6348" x2="176.8882" y2="202.6348">
			<stop  offset="0" style="stop-color:#231F20"/>
			<stop  offset="1" style="stop-color:#231F20;stop-opacity:0"/>
		</linearGradient>
		<path class="st19" d="M104.37,137.83c-36.79,0-64.07,29.01-60.94,64.8s35.49,64.8,72.28,64.8c36.79,0,64.07-29.01,60.94-64.8
			S141.15,137.83,104.37,137.83z"/>
	</g>
	<g>
		<defs>
			<path id="SVGID_17_" d="M228.25,43.13c-60.06,0-85.1,47.72-110.58,87.09c-33.04,51.05-89.32,73.97-92.42,129.85
				c-2.62,47.33,14.24,75.1,88.51,106.63c63.92,27.13,63.7,90.61,158.24,90.17c87.17-0.41,98.05-69.95,133.17-116.63
				c34.28-45.55,84.72-82.5,65.63-152.84c-14.43-53.15-95.46-50.35-127.95-78.76C301.66,72.61,275.15,43.13,228.25,43.13z"/>
		</defs>
		<clipPath id="SVGID_18_">
			<use xlink:href="#SVGID_17_"  style="overflow:visible;"/>
		</clipPath>
		<g class="st20">
			<linearGradient id="SVGID_19_" gradientUnits="userSpaceOnUse" x1="59.9718" y1="274.2916" x2="59.9718" y2="374.3897">
				<stop  offset="0" style="stop-color:#FFFFFF"/>
				<stop  offset="0.9944" style="stop-color:#FFFFFF;stop-opacity:0"/>
			</linearGradient>
			<rect x="47.78" y="280.84" class="st21" width="24.38" height="103.88"/>
			<linearGradient id="SVGID_20_" gradientUnits="userSpaceOnUse" x1="43.1862" y1="241.4146" x2="43.1862" y2="341.5127">
				<stop  offset="0" style="stop-color:#FFFFFF"/>
				<stop  offset="0.9944" style="stop-color:#FFFFFF;stop-opacity:0"/>
			</linearGradient>
			<rect x="30.99" y="247.96" class="st22" width="24.38" height="103.88"/>
			<linearGradient id="SVGID_21_" gradientUnits="userSpaceOnUse" x1="375.2495" y1="206.9278" x2="375.2495" y2="376.5548">
				<stop  offset="0" style="stop-color:#FFFFFF"/>
				<stop  offset="0.9944" style="stop-color:#FFFFFF;stop-opacity:0"/>
			</linearGradient>
			<rect x="363.06" y="218.03" class="st23" width="24.38" height="176.03"/>
			<g>
				<linearGradient id="SVGID_22_" gradientUnits="userSpaceOnUse" x1="130.2968" y1="73.1742" x2="332.0495" y2="373.3426">
					<stop  offset="0" style="stop-color:#FFBE0B"/>
					<stop  offset="1" style="stop-color:#EBEBEB;stop-opacity:0"/>
				</linearGradient>
				<path class="st24" d="M426.14,145.69c-2.46-23.31-18.79-43.76-39.41-54.92c-20.61-11.16-44.96-13.89-68.3-11.78
					c-26.11,2.36-51.67,10.57-74.27,23.86c-49.98,29.38-82.19,80.59-116.2,127.55c-14.62,20.18-30.02,40.03-48.81,56.4
					c-13.4,11.67-27.97,19.21-43.32,26.37c12.25,19.39,35.82,35.87,77.41,53.52c13.19,5.6,23.64,12.74,32.77,20.56
					c5.89-4.46,12.16-8.41,18.74-11.76c5.63-2.88,11.49-5.32,17.5-7.29c44.78-14.65,93.86-3,140.46-9.96
					c38.49-5.75,69.23-26.87,74.43-67.07c1.98-15.35,0.03-31.02,2.26-46.34C404.36,210.67,429.76,180.02,426.14,145.69z"/>
			</g>
			<linearGradient id="SVGID_23_" gradientUnits="userSpaceOnUse" x1="224.8627" y1="25.3498" x2="224.8627" y2="194.9767">
				<stop  offset="0" style="stop-color:#FFFFFF"/>
				<stop  offset="0.9944" style="stop-color:#FFFFFF;stop-opacity:0"/>
			</linearGradient>
			<rect x="212.67" y="36.45" class="st25" width="24.38" height="176.03"/>
			<linearGradient id="SVGID_24_" gradientUnits="userSpaceOnUse" x1="260.9577" y1="72.3416" x2="260.9577" y2="241.9685">
				<stop  offset="0" style="stop-color:#FFFFFF"/>
				<stop  offset="0.9944" style="stop-color:#FFFFFF;stop-opacity:0"/>
			</linearGradient>
			<rect x="248.77" y="83.44" class="st26" width="24.38" height="176.03"/>
			<linearGradient id="SVGID_25_" gradientUnits="userSpaceOnUse" x1="327.0349" y1="105.1145" x2="327.0349" y2="213.7522">
				<stop  offset="0" style="stop-color:#FFFFFF"/>
				<stop  offset="0.9944" style="stop-color:#FFFFFF;stop-opacity:0"/>
			</linearGradient>
			<rect x="314.84" y="112.22" class="st27" width="24.38" height="112.74"/>
			<linearGradient id="SVGID_26_" gradientUnits="userSpaceOnUse" x1="438.8754" y1="254.3724" x2="438.8754" y2="336.4276">
				<stop  offset="0" style="stop-color:#FFFFFF"/>
				<stop  offset="0.9944" style="stop-color:#FFFFFF;stop-opacity:0"/>
			</linearGradient>
			<rect x="426.68" y="259.74" class="st28" width="24.38" height="85.15"/>
			<linearGradient id="SVGID_27_" gradientUnits="userSpaceOnUse" x1="391.4881" y1="308.6127" x2="391.4881" y2="390.6679">
				<stop  offset="0" style="stop-color:#FFFFFF"/>
				<stop  offset="0.9944" style="stop-color:#FFFFFF;stop-opacity:0"/>
			</linearGradient>
			<rect x="379.3" y="313.98" class="st29" width="24.38" height="85.15"/>
		</g>
		<g class="st20">
			<g>
				<polygon class="st30" points="286.68,137.89 193.89,163.92 275.67,197.04 380.28,157.29 				"/>
				<polygon class="st31" points="283.27,455.27 226.61,435.51 193.89,163.92 275.67,197.04 				"/>
				<linearGradient id="SVGID_28_" gradientUnits="userSpaceOnUse" x1="238.5788" y1="343.0027" x2="238.5788" y2="215.1713">
					<stop  offset="0" style="stop-color:#231F20"/>
					<stop  offset="0.9944" style="stop-color:#231F20;stop-opacity:0"/>
				</linearGradient>
				<polygon class="st32" points="283.27,455.27 226.61,435.51 193.89,163.92 275.67,197.04 				"/>
				<linearGradient id="SVGID_29_" gradientUnits="userSpaceOnUse" x1="327.9755" y1="396.8035" x2="327.9755" y2="153.7569">
					<stop  offset="0.0112" style="stop-color:#3A86FF"/>
					<stop  offset="1" style="stop-color:#80ED99"/>
				</linearGradient>
				<polygon class="st33" points="380.28,157.29 370.98,433.55 283.27,455.27 275.67,197.04 				"/>
				<linearGradient id="SVGID_30_" gradientUnits="userSpaceOnUse" x1="327.9755" y1="358.7492" x2="327.9755" y2="202.4305">
					<stop  offset="0" style="stop-color:#231F20"/>
					<stop  offset="1" style="stop-color:#231F20;stop-opacity:0"/>
				</linearGradient>
				<polygon class="st34" points="380.28,157.29 370.98,433.55 283.27,455.27 275.67,197.04 				"/>
			</g>
			<g>
				<polygon class="st30" points="178.29,225.34 92.31,264.24 174,306.6 250.84,253.46 				"/>
				<polygon class="st31" points="92.31,264.24 126.2,415.83 193.89,481.61 174,306.6 				"/>
				<linearGradient id="SVGID_31_" gradientUnits="userSpaceOnUse" x1="143.0991" y1="509.3503" x2="143.0991" y2="318.1669">
					<stop  offset="0" style="stop-color:#231F20"/>
					<stop  offset="0.9944" style="stop-color:#231F20;stop-opacity:0"/>
				</linearGradient>
				<polygon class="st35" points="92.31,264.24 126.2,415.83 193.89,481.61 174,306.6 				"/>
				<linearGradient id="SVGID_32_" gradientUnits="userSpaceOnUse" x1="218.1706" y1="509.1234" x2="218.1706" y2="234.0988">
					<stop  offset="0.0112" style="stop-color:#3A86FF"/>
					<stop  offset="1" style="stop-color:#80ED99"/>
				</linearGradient>
				<polygon class="st36" points="250.84,253.46 262.34,478.65 193.89,481.61 174,306.6 				"/>
				<linearGradient id="SVGID_33_" gradientUnits="userSpaceOnUse" x1="218.1706" y1="426.5715" x2="218.1706" y2="290.2819">
					<stop  offset="0" style="stop-color:#231F20"/>
					<stop  offset="1" style="stop-color:#231F20;stop-opacity:0"/>
				</linearGradient>
				<polygon class="st37" points="250.84,253.46 262.34,478.65 193.89,481.61 174,306.6 				"/>
			</g>
			<g>
				<linearGradient id="SVGID_34_" gradientUnits="userSpaceOnUse" x1="275.9963" y1="319.0658" x2="267.1389" y2="483.4204">
					<stop  offset="0.0168" style="stop-color:#80ED99"/>
					<stop  offset="1" style="stop-color:#EBEBEB;stop-opacity:0"/>
				</linearGradient>
				<path class="st38" d="M433.95,324.8c8.89,44.16-8.91,100.01-44.84,128.64c-38,30.28-98.37,39.63-145.45,33.97
					c-54.57-6.56-108-36.4-134.16-84.74c15.86-23.19,42.21-42.9,68.74-51.98c27.66-9.47,57.71-8.88,86.8-5.97
					c29.09,2.91,58.1,8.02,87.32,7.24C381.59,351.18,411.77,343.84,433.95,324.8z"/>
			</g>
			<g>
				<polygon class="st31" points="220.1,356.76 238.21,503.75 301.93,527.37 360.9,484.79 373.84,340.02 				"/>
				<linearGradient id="SVGID_35_" gradientUnits="userSpaceOnUse" x1="296.9652" y1="510.9659" x2="296.9652" y2="412.515">
					<stop  offset="0" style="stop-color:#231F20"/>
					<stop  offset="0.9944" style="stop-color:#231F20;stop-opacity:0"/>
				</linearGradient>
				<polygon class="st39" points="220.1,356.76 238.21,503.75 301.93,527.37 360.9,484.79 373.84,340.02 				"/>
				<linearGradient id="SVGID_36_" gradientUnits="userSpaceOnUse" x1="337.8831" y1="505.7171" x2="337.8831" y2="353.2234">
					<stop  offset="0.0112" style="stop-color:#3A86FF"/>
					<stop  offset="1" style="stop-color:#80ED99"/>
				</linearGradient>
				<polygon class="st40" points="302.54,391.93 301.93,527.37 360.9,484.79 373.84,340.02 				"/>
				<linearGradient id="SVGID_37_" gradientUnits="userSpaceOnUse" x1="337.8831" y1="530.6491" x2="337.8831" y2="404.5674">
					<stop  offset="0" style="stop-color:#231F20"/>
					<stop  offset="0.9944" style="stop-color:#231F20;stop-opacity:0"/>
				</linearGradient>
				<polygon class="st41" points="302.54,391.93 301.93,527.37 360.9,484.79 373.84,340.02 				"/>
				<polygon class="st30" points="291.41,309.59 220.1,356.76 302.54,391.93 373.84,340.02 				"/>
			</g>
			<linearGradient id="SVGID_38_" gradientUnits="userSpaceOnUse" x1="338.4794" y1="200.8245" x2="245.3122" y2="137.8383">
				<stop  offset="0" style="stop-color:#231F20"/>
				<stop  offset="0.9944" style="stop-color:#231F20;stop-opacity:0"/>
			</linearGradient>
			<path class="st42" d="M231.97,169.76c0,0,16.01,7.54,23.57,7.36c7.56-0.17,28.76-7.36,28.76-7.36s1.54,8.62,18.17,17.1
				l7.88,35.94c0,0,13.79,19.57,16.69,18.83c2.9-0.74-1.39-25.06-1.39-25.06l1.39-35.96l-10.9-10.86l28.56,7.36l0.73,28.58
				c0,0-2.52,3.35-1.96,7.64c0.56,4.29,15.69,13.08,15.69,13.08l-6.38-14.53l10.5-43.3l-43.3-13.95l-39.53-8.75l-32.08,22.7
				L231.97,169.76z"/>
			<g>
				<path class="st43" d="M353.15,196.11l-3.02,10.86c0,0-2.84,1.8-1.89,5.12c0.95,3.32,9.9,15.67,13.77,15.67
					c1.78,0-5.74-18.42-5.74-18.42l3.96-12.47L353.15,196.11z"/>
				<path class="st44" d="M325.65,149.28c0,0,21.7,3.78,45.12,15.6c0,0-5.12,22.46-10.89,41.33c0,0-5.46,1.11-10.11-3.48l1.19-29.3
					c0,0-16.7,0-30.49-2.25c-12.41-2.02-13.4-17.05-13.4-17.05L325.65,149.28z"/>
				<linearGradient id="SVGID_39_" gradientUnits="userSpaceOnUse" x1="322.3765" y1="181.3129" x2="367.3665" y2="165.1249">
					<stop  offset="0" style="stop-color:#231F20"/>
					<stop  offset="0.9944" style="stop-color:#231F20;stop-opacity:0"/>
				</linearGradient>
				<path class="st45" d="M367.93,169.79c0,0-3.99,2.45-12.77,1.39c-8.78-1.06-45.31-14.76-45.31-14.76l1.22-3.33l-3.99,1.04
					c0,0,0.99,15.03,13.4,17.05c13.79,2.25,30.49,2.25,30.49,2.25l-1.19,29.3c0.38,0.38,0.77,0.7,1.16,1.01l6.11-26.8
					C364.65,176.99,367.93,169.79,367.93,169.79z"/>
				<path class="st43" d="M292.21,75.42c0,0,5.04-0.27,7.37,1.4c2.33,1.67-1.42,2.57-1.42,2.57l2.18,5.12l-10.33-3.48L292.21,75.42z
					"/>
				<path class="st43" d="M325.65,216.57l-1.23,9.22c0,0-2.67,2.46,0,7.14c3.15,5.53,12.22,17.14,13.99,15.03
					c1.78-2.1-7.19-22.18-7.19-22.18l1.4-9.86L325.65,216.57z"/>
				<path class="st44" d="M283.06,167.41c0,0,2.62,6.73,10.7,11.18s24.98,10.08,24.98,10.08s0.5,18.7,4.46,32.94
					c0,0,6.37,3.57,10.47,0c0,0,3.84-27.7,2.09-43.82l-28.68-23.67C307.07,154.13,290.44,159.22,283.06,167.41z"/>
				<linearGradient id="SVGID_40_" gradientUnits="userSpaceOnUse" x1="285.8783" y1="166.4357" x2="347.0566" y2="195.6583">
					<stop  offset="0" style="stop-color:#231F20"/>
					<stop  offset="0.9944" style="stop-color:#231F20;stop-opacity:0"/>
				</linearGradient>
				<path class="st46" d="M307.07,154.13c0,0-16.63,5.09-24.01,13.28c0,0,2.62,6.73,10.7,11.18s24.98,10.08,24.98,10.08
					s0.5,18.7,4.46,32.94c-3.18-14.42,0.13-29.28,0.13-29.28c9.42-0.51,11.81-7.64,11.81-7.64s-6.52,5.41-14.67,2.76
					s-23.04-17.03-23.04-17.03s17.43-1.42,25.9-9.42c4.03-3.81,5.91-7.73,6.79-10.8c-2.84-0.65-4.47-0.94-4.47-0.94L307.07,154.13z"
					/>
				<path class="st47" d="M247.5,170.46c0,0-2.2,0.88-5.82,1.5c-3.62,0.62-10.8-2.21-11.94-3.67c-1.14-1.45,6.76,0,6.76,0
					l-9.19-4.65c0,0,3.26-2.18,6.77-1.78s15.6,3.87,15.6,3.87L247.5,170.46z"/>
				<linearGradient id="SVGID_41_" gradientUnits="userSpaceOnUse" x1="239.9733" y1="161.9975" x2="247.6279" y2="173.1512">
					<stop  offset="0" style="stop-color:#231F20"/>
					<stop  offset="0.9944" style="stop-color:#231F20;stop-opacity:0"/>
				</linearGradient>
				<path class="st48" d="M239.71,172c0.72,0.06,1.4,0.06,1.98-0.04c3.62-0.62,5.82-1.5,5.82-1.5l2.17-4.73c0,0-5.29-1.52-9.88-2.66
					C237.92,165.2,236.87,168.24,239.71,172z"/>
				<path class="st9" d="M296.89,106.17c0,0-18.15,4.28-21.94,7.2s-14.76,22.16-17.25,26.28c-2.49,4.12-17,27.76-17,27.76
					s2.35,4.95,7.23,4.51c0,0,17.87-16.94,28.33-33.58c0,0,0.84,16.55,6.79,29.08c0,0,40.98,0.31,48.15-16.94
					c0,0-10.24-10.43-11.02-19.18c-0.78-8.75-5.12-24.52-8.49-26.73C308.33,102.36,296.89,106.17,296.89,106.17z"/>
				<polygon class="st49" points="289.9,103.64 285.12,106.17 284.07,111.62 292.57,118.45 295.32,112.04 299.97,115.09 
					300.89,109.41 305.45,111.52 300.89,103.14 				"/>
				<polygon points="289.9,103.64 285.12,106.17 284.07,111.62 292.57,118.45 295.32,112.04 299.97,115.09 300.89,109.41 
					305.45,111.52 300.89,103.14 				"/>
				<polygon class="st47" points="288.13,93.6 288.26,106.17 294.32,107.84 298.89,112.67 298.89,105.54 295.57,96.25 				"/>
				<linearGradient id="SVGID_42_" gradientUnits="userSpaceOnUse" x1="296.6732" y1="96.6555" x2="292.4686" y2="105.2751">
					<stop  offset="0" style="stop-color:#231F20"/>
					<stop  offset="0.9944" style="stop-color:#231F20;stop-opacity:0"/>
				</linearGradient>
				<polygon class="st50" points="288.13,93.6 288.26,106.17 294.32,107.84 298.89,112.67 298.89,105.54 295.57,96.25 				"/>
				<linearGradient id="SVGID_43_" gradientUnits="userSpaceOnUse" x1="282.8878" y1="126.1234" x2="268.697" y2="170.588">
					<stop  offset="0" style="stop-color:#231F20"/>
					<stop  offset="0.9944" style="stop-color:#231F20;stop-opacity:0"/>
				</linearGradient>
				<path class="st51" d="M283.06,141.45h11.7l-17.65-8.19l-32.82,28.31c-2.1,3.42-3.59,5.84-3.59,5.84s2.35,4.95,7.23,4.51
					c0,0,17.87-16.94,28.33-33.58c0,0,0.84,16.55,6.79,29.08c0,0,7.16,0.05,16.01-1.14L283.06,141.45z"/>
				<linearGradient id="SVGID_44_" gradientUnits="userSpaceOnUse" x1="318.5533" y1="127.3369" x2="313.6012" y2="144.6693">
					<stop  offset="0" style="stop-color:#231F20"/>
					<stop  offset="0.9944" style="stop-color:#231F20;stop-opacity:0"/>
				</linearGradient>
				<path class="st52" d="M322.7,138.89c-1.3-2.48-2.29-5.11-2.51-7.6c-0.09-0.96-0.19-2.01-0.32-3.13l-12.8,13.28L322.7,138.89z"/>
				<path class="st47" d="M282.31,81.18c4.2-5.26,12.27-8.32,16.66-2.94c4.39,5.38,6.23,20.15,4.16,21.65
					c-2.07,1.49-9.52,0.94-14.98-2.15C282.68,94.65,277.59,87.09,282.31,81.18z"/>
				<linearGradient id="SVGID_45_" gradientUnits="userSpaceOnUse" x1="283.5337" y1="81.7498" x2="296.5986" y2="89.0508">
					<stop  offset="0" style="stop-color:#231F20"/>
					<stop  offset="0.9944" style="stop-color:#231F20;stop-opacity:0"/>
				</linearGradient>
				<path class="st53" d="M299.58,79.07c-0.2-0.29-0.4-0.58-0.61-0.83c-4.39-5.38-12.47-2.31-16.66,2.94
					c-3.73,4.67-1.32,10.37,2.55,14.08c0,0,0-0.01,0-0.01c-2.14-6.48,1.77-4.93,1.77-4.93l-1.06-4.79l0.61-3.2
					C286.17,82.34,293.61,82.45,299.58,79.07z"/>
				<path class="st43" d="M285.15,81.15c0,0,5.72,0.76,9.06-1.76c3.34-2.52-2-1.09-2-1.09s8.07-3.46,9.27-5.38
					c1.2-1.92-11.68-1.15-11.68-1.15s6.41-2.69,3.49-3.27c-2.92-0.58-12.44,3.14-14.98,12.23c0,0-7.4,1.27-0.24,2.52
					c0,0-2.11,1.02-1.34,5.34c0.77,4.31,11.52,12.09,11.52,12.09l-0.11-6.05c0,0-6.05-0.75-6.43-3.82c-0.38-3.07,4.9-0.47,4.9-0.47
					l-2.18-4.15L285.15,81.15z"/>
			</g>
		</g>
	</g>
	<g>
		<line class="st54" x1="204.96" y1="276.9" x2="255.54" y2="342.01"/>
		<line class="st54" x1="222" y1="265.34" x2="275.53" y2="326.58"/>
		<line class="st54" x1="210.79" y1="284.41" x2="228.25" y2="272.49"/>
		<line class="st54" x1="216.83" y1="292.18" x2="234.26" y2="279.36"/>
		<line class="st54" x1="223.29" y1="300.5" x2="240.65" y2="286.68"/>
		<line class="st54" x1="229.29" y1="308.21" x2="247.22" y2="294.19"/>
		<line class="st54" x1="236.54" y1="317.55" x2="254.32" y2="302.32"/>
		<line class="st54" x1="242.76" y1="325.55" x2="260.96" y2="309.45"/>
		<line class="st54" x1="249.15" y1="333.8" x2="268.34" y2="318.35"/>
	</g>
	<g>
		<line class="st54" x1="244.82" y1="175.34" x2="212.85" y2="251.34"/>
		<line class="st54" x1="225.36" y1="168.59" x2="189.55" y2="241.63"/>
		<line class="st54" x1="241.14" y1="184.11" x2="221.18" y2="177.12"/>
		<line class="st54" x1="237.32" y1="193.18" x2="217.16" y2="185.32"/>
		<line class="st54" x1="233.24" y1="202.89" x2="212.88" y2="194.05"/>
		<line class="st54" x1="229.45" y1="211.89" x2="208.49" y2="203"/>
		<line class="st54" x1="224.86" y1="222.79" x2="203.74" y2="212.69"/>
		<line class="st54" x1="220.93" y1="232.13" x2="199.18" y2="221.31"/>
		<line class="st54" x1="216.9" y1="241.76" x2="194.36" y2="231.82"/>
	</g>
	<g>
		<linearGradient id="SVGID_46_" gradientUnits="userSpaceOnUse" x1="575.2838" y1="362.7653" x2="318.4179" y2="-25.9784">
			<stop  offset="0" style="stop-color:#3A86FF"/>
			<stop  offset="0.9832" style="stop-color:#80ED99;stop-opacity:0.4"/>
		</linearGradient>
		<path class="st55" d="M379.45,107.92c12.03,4.62,25.14,6.65,38.9,5.43c6.43-0.57,13.02-1.98,18.23-5.8
			c5.21-3.82,8.72-10.5,7.24-16.79c-1.38-5.86-6.59-10.04-11.94-12.79c-8.53-4.39-17.4-8.68-26.37-12.09
			c-8.2-3.12-16.39-6.23-24.59-9.35c-8.8-3.35-17.61-6.7-26.51-9.77c-4.77-1.65-9.69-3.24-14.74-3.15
			c-18.2,0.32-13.36,17.67-6.37,27.48C345.22,87.82,361.09,100.88,379.45,107.92z"/>
	</g>
	<g>
		<linearGradient id="SVGID_47_" gradientUnits="userSpaceOnUse" x1="223.6977" y1="595.0796" x2="-33.1682" y2="206.336">
			<stop  offset="0" style="stop-color:#3A86FF"/>
			<stop  offset="0.9832" style="stop-color:#80ED99;stop-opacity:0.4"/>
		</linearGradient>
		<path class="st56" d="M165.09,432.99c-8.84-20.2-25.06-36.87-44.58-46.99c-16.32-8.46-44.01-18.33-60.34-4.62
			c-8.64,7.26-12.13,20.41-7.27,30.6c3.73,7.82,11.53,13.03,19.71,15.91c8.18,2.88,16.89,3.78,25.42,5.32
			c18.38,3.33,36.2,9.74,52.49,18.9c2.8,1.57,5.8,3.29,9,3c4.45-0.4,7.74-4.76,8.32-9.19C168.41,441.5,166.88,437.08,165.09,432.99z
			"/>
	</g>
</g>
</svg>
